# xmcd
#
# Track frame offsets: 
#        150
#        21719
#        48824
#        67704
#        98980
#        120911
#        143020
#        156385
#        181711
#        204309
#        224702
#        247261
#        271054
#        298100
#
# Disc length: 4260 seconds
#
# Revision: 1
# Processed by: cddbd v1.5.2PL0 Copyright (c) Steve Scherf et al.
# Submitted via: ExactAudioCopy v0.99pb4
#
DISCID=ce10a20e
DTITLE=Various Artist - Salsa Al Piso CD1
DYEAR=2002
DGENRE=Salsa
TTITLE0=Hector Lavoe - Ella Mintio
TTITLE1=Tito Rojas - Condename A Tu Amor
TTITLE2=Puerto Rican Power - No Puedo Prescindir De Ti
TTITLE3=Orquesta La Inmensidad - Lagrimas
TTITLE4=Pedro Conga - Tu Forma De Amar
TTITLE5=Gustavo Rodriguez - Si Supieras
TTITLE6=Mon Rivera - Lluvia Con Nieve
TTITLE7=Willie Gonzalez - Hazme Olvidarla
TTITLE8=Tito Rojas - Amor Del Bueno
TTITLE9=Guayacan Orquesta - Si Tu No Estas
TTITLE10=Orquesta Mulenze - No Es Porque Te Quiero
TTITLE11=Roberto Lugo - Si Me Dejas Amarte
TTITLE12=Willie Gonzalez - Doble Vida
TTITLE13=Hansel Camacho - Cuando Estoy Junto A Ti
EXTD=
EXTT0=
EXTT1=
EXTT2=
EXTT3=
EXTT4=
EXTT5=
EXTT6=
EXTT7=
EXTT8=
EXTT9=
EXTT10=
EXTT11=
EXTT12=
EXTT13=
PLAYORDER=
